<?xml version="1.0" encoding="UTF-8"?>
<!DOCTYPE svg PUBLIC "-//W3C//DTD SVG 1.1//EN" "http://www.w3.org/Graphics/SVG/1.1/DTD/svg11.dtd">
<svg xmlns="http://www.w3.org/2000/svg" version="1.1" width="300px" height="300px" style="shape-rendering:geometricPrecision; text-rendering:geometricPrecision; image-rendering:optimizeQuality; fill-rule:evenodd; clip-rule:evenodd" xmlns:xlink="http://www.w3.org/1999/xlink">
<g><path style="opacity:1" fill="#0ce1fa" d="M -0.5,-0.5 C 99.5,-0.5 199.5,-0.5 299.5,-0.5C 299.5,99.5 299.5,199.5 299.5,299.5C 199.5,299.5 99.5,299.5 -0.5,299.5C -0.5,199.5 -0.5,99.5 -0.5,-0.5 Z"/></g>
<g><path style="opacity:1" fill="#e0fbfe" d="M 168.5,35.5 C 169.309,37.2922 169.809,39.2922 170,41.5C 172.149,38.5537 173.982,38.3871 175.5,41C 172.243,42.0429 168.91,42.5429 165.5,42.5C 165.657,41.1266 165.49,39.7932 165,38.5C 164.282,39.4506 163.449,39.6172 162.5,39C 164.618,37.9179 166.618,36.7512 168.5,35.5 Z"/></g>
<g><path style="opacity:1" fill="#dcfafe" d="M 116.5,35.5 C 117.289,35.7828 117.956,36.2828 118.5,37C 116.408,40.0979 113.908,42.9312 111,45.5C 110.209,46.745 109.709,48.0783 109.5,49.5C 105.5,49.8333 105.5,50.1667 109.5,50.5C 109.245,53.0163 108.411,55.3496 107,57.5C 105.951,55.8934 104.451,55.2267 102.5,55.5C 102.579,56.9305 102.246,58.2638 101.5,59.5C 98.5919,60.1888 95.9252,61.3555 93.5,63C 94.428,63.3879 95.0946,64.0546 95.5,65C 95.0109,66.1385 94.6775,67.3052 94.5,68.5C 94.6495,69.552 94.4828,70.552 94,71.5C 93.5831,70.244 92.7498,69.5774 91.5,69.5C 91.6715,67.5082 91.0049,65.8415 89.5,64.5C 93.7581,62.0957 93.4248,60.4291 88.5,59.5C 89.0983,58.2054 89.5983,56.8721 90,55.5C 90.7175,56.4506 91.5509,56.6172 92.5,56C 91.8095,54.9326 91.3095,53.7659 91,52.5C 90.586,52.9574 90.086,53.2907 89.5,53.5C 88.1482,52.4756 86.8149,51.4756 85.5,50.5C 86.12,48.0233 87.12,48.0233 88.5,50.5C 89.2978,48.9223 89.7978,47.2556 90,45.5C 90.2492,46.624 90.7492,47.624 91.5,48.5C 94.9234,46.1299 98.5901,44.1299 102.5,42.5C 101.353,40.4154 102.02,38.9154 104.5,38C 105.833,38.3333 107.167,38.6667 108.5,39C 109.833,37.3333 109.833,35.6667 108.5,34C 109.793,33.51 111.127,33.3433 112.5,33.5C 111.969,38.0169 113.302,38.6835 116.5,35.5 Z"/></g>
<g><path style="opacity:1" fill="#b9f6fe" d="M 142.5,43.5 C 141.859,42.5178 141.193,41.5178 140.5,40.5C 141.145,39.2679 141.311,37.9346 141,36.5C 147.369,41.929 147.869,41.429 142.5,35C 140.885,34.9378 139.552,34.7711 138.5,34.5C 140.599,33.3882 142.933,32.7215 145.5,32.5C 145.34,34.1992 145.506,35.8659 146,37.5C 147.154,36.2567 148.488,35.2567 150,34.5C 151.617,35.5358 151.784,36.7025 150.5,38C 152.857,40.1228 155.024,39.9561 157,37.5C 159.421,39.2933 161.921,40.9599 164.5,42.5C 157.197,43.4973 149.863,43.8306 142.5,43.5 Z"/></g>
<g><path style="opacity:1" fill="#aff5fd" d="M 181.5,49.5 C 181.385,46.6607 180.052,44.6607 177.5,43.5C 176.571,44.6888 176.238,46.0222 176.5,47.5C 175.549,46.0813 175.216,44.4147 175.5,42.5C 177.592,42.4386 179.092,41.4386 180,39.5C 181.648,40.717 183.481,41.5503 185.5,42C 183.996,44.5138 182.662,47.0138 181.5,49.5 Z"/></g>
<g><path style="opacity:1" fill="#e4fbfe" d="M 181.5,49.5 C 178.207,59.9356 176.54,59.2689 176.5,47.5C 176.238,46.0222 176.571,44.6888 177.5,43.5C 180.052,44.6607 181.385,46.6607 181.5,49.5 Z"/></g>
<g><path style="opacity:1" fill="#69ebfc" d="M 125.5,34.5 C 123.962,37.0742 122.295,39.5742 120.5,42C 121.22,44.6383 121.386,47.1383 121,49.5C 120.333,50.8333 119.667,50.8333 119,49.5C 118.027,47.6079 117.36,45.6079 117,43.5C 116.395,45.4812 115.395,45.8146 114,44.5C 112.905,45.6934 112.072,47.0267 111.5,48.5C 110.833,48.8333 110.167,49.1667 109.5,49.5C 109.709,48.0783 110.209,46.745 111,45.5C 113.908,42.9312 116.408,40.0979 118.5,37C 117.956,36.2828 117.289,35.7828 116.5,35.5C 117.958,33.9892 119.791,32.9892 122,32.5C 122.816,33.8228 123.983,34.4894 125.5,34.5 Z"/></g>
<g><path style="opacity:1" fill="#e5fbfe" d="M 138.5,34.5 C 139.552,34.7711 140.885,34.9378 142.5,35C 147.869,41.429 147.369,41.929 141,36.5C 141.311,37.9346 141.145,39.2679 140.5,40.5C 141.193,41.5178 141.859,42.5178 142.5,43.5C 144.367,45.8124 144.867,48.4791 144,51.5C 143.395,49.5188 142.395,49.1854 141,50.5C 140.408,47.6004 138.908,45.7671 136.5,45C 137.293,46.0852 137.96,47.2519 138.5,48.5C 135.611,49.3887 132.945,50.722 130.5,52.5C 127.318,52.1393 123.985,51.9726 120.5,52C 121.563,53.1882 122.897,53.6882 124.5,53.5C 123.234,56.3006 122.401,59.3006 122,62.5C 121.617,61.944 121.117,61.6107 120.5,61.5C 120.579,60.0695 120.246,58.7362 119.5,57.5C 117.659,56.7696 115.825,56.1029 114,55.5C 113.833,55.1667 113.667,54.8333 113.5,54.5C 114.376,53.7492 115.376,53.2492 116.5,53C 114.76,51.483 113.094,49.983 111.5,48.5C 112.072,47.0267 112.905,45.6934 114,44.5C 115.395,45.8146 116.395,45.4812 117,43.5C 117.36,45.6079 118.027,47.6079 119,49.5C 119.667,50.8333 120.333,50.8333 121,49.5C 121.386,47.1383 121.22,44.6383 120.5,42C 122.295,39.5742 123.962,37.0742 125.5,34.5C 125.435,34.0618 125.601,33.7284 126,33.5C 127,34.5 128,35.5 129,36.5C 130.798,32.3529 132.632,32.0196 134.5,35.5C 135.728,33.8241 137.061,33.4908 138.5,34.5 Z"/></g>
<g><path style="opacity:1" fill="#ecfcfe" d="M 169.5,50.5 C 170.708,51.2341 172.041,51.5674 173.5,51.5C 172.105,55.1947 170.772,54.8613 169.5,50.5 Z"/></g>
<g><path style="opacity:1" fill="#c1f7fd" d="M 150.5,48.5 C 153.787,50.6135 156.12,53.4469 157.5,57C 155.316,57.4424 153.316,56.9424 151.5,55.5C 151.833,54.8333 152.167,54.1667 152.5,53.5C 150.995,52.1585 150.328,50.4918 150.5,48.5 Z"/></g>
<g><path style="opacity:1" fill="#dbfafe" d="M 134.5,54.5 C 135.995,54.4148 136.995,55.0815 137.5,56.5C 134.813,60.3137 131.147,61.4804 126.5,60C 129.789,58.8727 132.455,57.0394 134.5,54.5 Z"/></g>
<g><path style="opacity:1" fill="#bbf6fd" d="M 85.5,53.5 C 84.7689,55.7494 83.7689,57.916 82.5,60C 83.9679,62.0283 83.8013,63.8616 82,65.5C 81.2904,64.0267 80.1238,63.3601 78.5,63.5C 77.0719,60.3003 77.4052,57.1337 79.5,54C 77.8753,51.729 78.2086,49.8957 80.5,48.5C 81.2229,51.0698 82.3896,53.4032 84,55.5C 84.2784,54.5842 84.7784,53.9175 85.5,53.5 Z"/></g>
<g><path style="opacity:1" fill="#c0f7fd" d="M 111.5,48.5 C 113.094,49.983 114.76,51.483 116.5,53C 115.376,53.2492 114.376,53.7492 113.5,54.5C 113.667,54.8333 113.833,55.1667 114,55.5C 115.825,56.1029 117.659,56.7696 119.5,57.5C 120.246,58.7362 120.579,60.0695 120.5,61.5C 119.883,61.6107 119.383,61.944 119,62.5C 118.077,61.2412 117.243,59.9079 116.5,58.5C 113.964,61.0505 112.298,60.3838 111.5,56.5C 110.201,57.09 109.368,58.09 109,59.5C 106.91,58.2092 105.576,58.8758 105,61.5C 104.667,61.1667 104.333,60.8333 104,60.5C 103.167,61.5 102.333,62.5 101.5,63.5C 99.4495,60.785 97.7828,60.9517 96.5,64C 98.0368,65.1096 98.7035,66.6096 98.5,68.5C 97.1667,68.5 95.8333,68.5 94.5,68.5C 94.6775,67.3052 95.0109,66.1385 95.5,65C 95.0946,64.0546 94.428,63.3879 93.5,63C 95.9252,61.3555 98.5919,60.1888 101.5,59.5C 102.246,58.2638 102.579,56.9305 102.5,55.5C 104.451,55.2267 105.951,55.8934 107,57.5C 108.411,55.3496 109.245,53.0163 109.5,50.5C 105.5,50.1667 105.5,49.8333 109.5,49.5C 110.167,49.1667 110.833,48.8333 111.5,48.5 Z"/></g>
<g><path style="opacity:1" fill="#f6fefe" d="M 85.5,50.5 C 86.8149,51.4756 88.1482,52.4756 89.5,53.5C 90.086,53.2907 90.586,52.9574 91,52.5C 91.3095,53.7659 91.8095,54.9326 92.5,56C 91.5509,56.6172 90.7175,56.4506 90,55.5C 89.5983,56.8721 89.0983,58.2054 88.5,59.5C 93.4248,60.4291 93.7581,62.0957 89.5,64.5C 91.0049,65.8415 91.6715,67.5082 91.5,69.5C 90.119,71.2741 90.4523,72.7741 92.5,74C 91.5838,74.3742 90.7504,74.8742 90,75.5C 85.6628,74.2351 81.8295,75.2351 78.5,78.5C 76.7376,78.3573 75.0709,78.6906 73.5,79.5C 72.6143,78.675 72.281,77.675 72.5,76.5C 73.0396,73.1353 73.7063,69.802 74.5,66.5C 76.632,66.4456 77.9653,65.4456 78.5,63.5C 80.1238,63.3601 81.2904,64.0267 82,65.5C 83.8013,63.8616 83.9679,62.0283 82.5,60C 83.7689,57.916 84.7689,55.7494 85.5,53.5C 85.5,52.5 85.5,51.5 85.5,50.5 Z"/></g>
<g><path style="opacity:1" fill="#e4fcfe" d="M 222.5,71.5 C 220.704,70.2342 220.37,70.5675 221.5,72.5C 219.271,76.0549 216.604,76.3882 213.5,73.5C 212.893,73.6236 212.56,73.9569 212.5,74.5C 212.625,70.6245 210.625,69.6245 206.5,71.5C 206.752,68.7562 206.085,66.2562 204.5,64C 205.161,61.536 205.661,59.036 206,56.5C 209.667,52.5 213.333,52.5 217,56.5C 217.667,58.5 218.333,60.5 219,62.5C 223.498,61.3299 227.665,62.1632 231.5,65C 228.824,67.6661 225.824,69.8327 222.5,71.5 Z"/></g>
<g><path style="opacity:1" fill="#d5fafe" d="M 71.5,65.5 C 70.7784,65.9175 70.2784,66.5842 70,67.5C 69.6174,66.944 69.1174,66.6107 68.5,66.5C 66.1068,64.5765 66.2735,62.5765 69,60.5C 70.3717,61.9101 71.205,63.5767 71.5,65.5 Z"/></g>
<g><path style="opacity:1" fill="#e8fcfe" d="M 204.5,72.5 C 204.167,73.1667 203.833,73.8333 203.5,74.5C 195.849,77.0741 191.682,74.0741 191,65.5C 188.932,68.6454 186.432,69.1454 183.5,67C 186.017,64.6506 188.35,62.1506 190.5,59.5C 189.837,55.3187 190.67,51.3187 193,47.5C 193.333,47.8333 193.667,48.1667 194,48.5C 197.977,56.2537 201.477,64.2537 204.5,72.5 Z"/></g>
<g><path style="opacity:1" fill="#77ecfc" d="M 71.5,65.5 C 71.8041,67.7957 72.8041,68.129 74.5,66.5C 73.7063,69.802 73.0396,73.1353 72.5,76.5C 71.6963,78.1887 70.6963,79.8554 69.5,81.5C 67.4177,79.5779 66.0844,77.2445 65.5,74.5C 67.0233,72.1042 68.0233,69.4375 68.5,66.5C 69.1174,66.6107 69.6174,66.944 70,67.5C 70.2784,66.5842 70.7784,65.9175 71.5,65.5 Z"/></g>
<g><path style="opacity:1" fill="#030a0c" d="M 159.5,71.5 C 180.699,71.6976 192.366,82.3643 194.5,103.5C 194.688,116.794 189.354,127.127 178.5,134.5C 177.05,147.47 175.883,160.47 175,173.5C 168.713,195.915 157.879,215.748 142.5,233C 136.293,233.426 130.293,232.426 124.5,230C 103.453,219.971 86.1201,205.471 72.5,186.5C 60.8972,186.114 51.0639,181.781 43,173.5C 38.8256,167.154 35.159,160.488 32,153.5C 31.3333,148.5 31.3333,143.5 32,138.5C 34.5365,135.687 36.7031,135.854 38.5,139C 35.8453,162.506 46.1786,176.006 69.5,179.5C 72.1778,178.825 74.8445,178.158 77.5,177.5C 77.3367,179.857 77.5034,182.19 78,184.5C 91.3423,205.27 109.842,219.437 133.5,227C 136.5,227.667 139.5,227.667 142.5,227C 155.522,211.126 165.022,193.293 171,173.5C 172.225,161.522 173.059,149.522 173.5,137.5C 167.124,138.418 160.79,138.751 154.5,138.5C 150.063,146.374 145.897,154.374 142,162.5C 141.333,166.167 141.333,169.833 142,173.5C 143.152,178.126 143.985,182.793 144.5,187.5C 143.022,187.762 141.689,187.429 140.5,186.5C 136.449,166.284 124.449,153.784 104.5,149C 102.098,148.186 99.7649,148.353 97.5,149.5C 100.621,154.062 102.288,159.062 102.5,164.5C 101.325,164.719 100.325,164.386 99.5,163.5C 90.1927,139.692 73.1927,124.525 48.5,118C 47.4464,116.612 47.2797,115.112 48,113.5C 50.0639,112.409 52.2305,112.242 54.5,113C 58.9531,114.726 63.2864,116.726 67.5,119C 73.5,123.667 79.5,128.333 85.5,133C 88.9784,136.299 91.9784,139.966 94.5,144C 103.464,142.99 112.13,144.323 120.5,148C 125.968,152.467 131.135,157.3 136,162.5C 136.483,158.533 137.816,154.866 140,151.5C 144.027,146.306 147.86,140.973 151.5,135.5C 133.892,121.4 130.392,104.4 141,84.5C 145.99,78.2747 152.157,73.9414 159.5,71.5 Z"/></g>
<g><path style="opacity:1" fill="#95f2fd" d="M 212.5,74.5 C 213.043,74.56 213.376,74.8933 213.5,75.5C 212.118,78.1946 210.784,80.8613 209.5,83.5C 208.837,81.9581 208.17,80.2914 207.5,78.5C 206.522,78.9767 205.689,79.6433 205,80.5C 203.681,78.7505 203.181,76.7505 203.5,74.5C 203.833,73.8333 204.167,73.1667 204.5,72.5C 205.925,74.0311 206.591,73.6977 206.5,71.5C 210.625,69.6245 212.625,70.6245 212.5,74.5 Z"/></g>
<g><path style="opacity:1" fill="#d7fafe" d="M 235.5,70.5 C 235.827,72.4878 236.16,74.4878 236.5,76.5C 234.812,79.8752 233.146,83.2086 231.5,86.5C 230.518,87.1408 229.518,87.8075 228.5,88.5C 227.893,88.3764 227.56,88.0431 227.5,87.5C 228.598,86.603 228.598,85.7697 227.5,85C 229.992,83.7508 229.825,82.5842 227,81.5C 226.517,80.552 226.351,79.552 226.5,78.5C 230.898,77.8927 231.231,76.8927 227.5,75.5C 229.333,73.1667 231.167,70.8333 233,68.5C 233.417,69.756 234.25,70.4226 235.5,70.5 Z"/></g>
<g><path style="opacity:1" fill="#8ff1fc" d="M 224.5,73.5 C 225.931,74.7804 226.598,76.4471 226.5,78.5C 226.351,79.552 226.517,80.552 227,81.5C 229.825,82.5842 229.992,83.7508 227.5,85C 228.598,85.7697 228.598,86.603 227.5,87.5C 225.302,87.4088 224.969,88.0755 226.5,89.5C 223.174,89.0328 222.841,87.8661 225.5,86C 223.423,85.8078 221.423,85.3078 219.5,84.5C 221.697,82.1476 221.697,79.6476 219.5,77C 221.936,76.7935 223.602,75.6269 224.5,73.5 Z"/></g>
<g><path style="opacity:1" fill="#d0f9fe" d="M 65.5,74.5 C 66.0844,77.2445 67.4177,79.5779 69.5,81.5C 70.6963,79.8554 71.6963,78.1887 72.5,76.5C 72.281,77.675 72.6143,78.675 73.5,79.5C 75.0709,78.6906 76.7376,78.3573 78.5,78.5C 76.0117,80.2553 73.6784,82.2553 71.5,84.5C 73.5984,85.4495 75.765,85.4495 78,84.5C 78.8333,84.8333 79.6667,85.1667 80.5,85.5C 80.3764,86.1067 80.0431,86.44 79.5,86.5C 78.7784,86.9175 78.2784,87.5842 78,88.5C 73.516,88.32 69.3494,86.6534 65.5,83.5C 64.3961,84.6313 64.7295,85.4646 66.5,86C 65.3266,89.1103 65.8266,89.277 68,86.5C 68.4562,88.7132 67.4562,89.7132 65,89.5C 59.5792,88.3065 56.7459,84.9732 56.5,79.5C 57.5935,78.1708 58.9269,77.3374 60.5,77C 57.9053,75.0705 57.4053,72.9039 59,70.5C 61.0105,74.0016 62.3439,74.0016 63,70.5C 64.0946,71.6934 64.928,73.0267 65.5,74.5 Z"/></g>
<g><path style="opacity:1" fill="#aaf5fd" d="M 231.5,86.5 C 233.146,83.2086 234.812,79.8752 236.5,76.5C 236.16,74.4878 235.827,72.4878 235.5,70.5C 235.56,69.9569 235.893,69.6236 236.5,69.5C 240.31,69.889 242.643,71.889 243.5,75.5C 240.131,79.8692 236.131,83.5358 231.5,86.5 Z"/></g>
<g><path style="opacity:1" fill="#c7f8fd" d="M 222.5,71.5 C 222.5,72.8333 223.167,73.5 224.5,73.5C 223.602,75.6269 221.936,76.7935 219.5,77C 221.697,79.6476 221.697,82.1476 219.5,84.5C 221.423,85.3078 223.423,85.8078 225.5,86C 222.841,87.8661 223.174,89.0328 226.5,89.5C 223.029,92.1397 220.029,95.3064 217.5,99C 216.551,99.6172 215.718,99.4506 215,98.5C 214.667,99.1667 214.333,99.8333 214,100.5C 214.162,96.4163 212.995,92.9163 210.5,90C 211.293,88.9148 211.96,87.7481 212.5,86.5C 211.007,85.8589 210.007,84.8589 209.5,83.5C 210.784,80.8613 212.118,78.1946 213.5,75.5C 213.376,74.8933 213.043,74.56 212.5,74.5C 212.56,73.9569 212.893,73.6236 213.5,73.5C 216.604,76.3882 219.271,76.0549 221.5,72.5C 220.37,70.5675 220.704,70.2342 222.5,71.5 Z"/></g>
<g><path style="opacity:1" fill="#96f2fd" d="M 56.5,79.5 C 56.7459,84.9732 59.5792,88.3065 65,89.5C 67.4562,89.7132 68.4562,88.7132 68,86.5C 65.8266,89.277 65.3266,89.1103 66.5,86C 64.7295,85.4646 64.3961,84.6313 65.5,83.5C 69.3494,86.6534 73.516,88.32 78,88.5C 78.2784,87.5842 78.7784,86.9175 79.5,86.5C 79.56,87.0431 79.8933,87.3764 80.5,87.5C 81.3333,86.5 82.1667,85.5 83,84.5C 83.08,87.7246 82.2467,90.7246 80.5,93.5C 78.8523,92.1902 77.1856,90.8569 75.5,89.5C 72.5484,89.6399 69.8818,90.9733 67.5,93.5C 66.0369,93.6353 64.8702,92.6353 64,90.5C 63.259,94.1846 61.759,94.8513 59.5,92.5C 58.7248,94.4753 57.3914,95.3087 55.5,95C 55.8826,90.6879 54.8826,86.5213 52.5,82.5C 53.8518,81.4756 55.1851,80.4756 56.5,79.5 Z"/></g>
<g><path style="opacity:1" fill="#ddfafe" d="M 80.5,93.5 C 80.3893,94.1174 80.056,94.6174 79.5,95C 75.1667,95.6667 70.8333,95.6667 66.5,95C 67.056,94.6174 67.3893,94.1174 67.5,93.5C 69.8818,90.9733 72.5484,89.6399 75.5,89.5C 77.1856,90.8569 78.8523,92.1902 80.5,93.5 Z"/></g>
<g><path style="opacity:1" fill="#00ddf4" d="M 160.5,88.5 C 175.666,88.1647 182.833,95.4981 182,110.5C 179.18,121.667 172.013,126.5 160.5,125C 150.183,120.536 146.016,112.702 148,101.5C 150.379,95.2901 154.546,90.9567 160.5,88.5 Z"/></g>
<g><path style="opacity:1" fill="#020809" d="M 162.5,99.5 C 168.867,99.8724 171.034,103.206 169,109.5C 167.695,112.306 165.528,113.14 162.5,112C 158.535,107.761 158.535,103.595 162.5,99.5 Z"/></g>
<g><path style="opacity:1" fill="#ebfcfe" d="M 251.5,98.5 C 255.936,98.2101 260.27,98.7101 264.5,100C 265.38,101.356 265.714,102.856 265.5,104.5C 259.855,105.134 254.189,105.468 248.5,105.5C 248.5,104.5 248.5,103.5 248.5,102.5C 252.186,102.87 253.186,101.537 251.5,98.5 Z"/></g>
<g><path style="opacity:1" fill="#aff5fd" d="M 64.5,101.5 C 67.9887,103.381 71.322,105.547 74.5,108C 72.7926,109.32 71.126,110.32 69.5,111C 65.7927,108.601 64.126,105.434 64.5,101.5 Z"/></g>
<g><path style="opacity:1" fill="#d0f9fd" d="M 262.5,110.5 C 263.643,110.908 264.643,111.575 265.5,112.5C 264.167,113.833 262.833,113.833 261.5,112.5C 261.863,111.817 262.196,111.15 262.5,110.5 Z"/></g>
<g><path style="opacity:1" fill="#e8fcfe" d="M 249.5,112.5 C 254.729,114.789 258.729,118.455 261.5,123.5C 260.277,124.614 258.944,124.781 257.5,124C 252.865,122.537 249.865,119.537 248.5,115C 248.743,114.098 249.077,113.265 249.5,112.5 Z"/></g>
<g><path style="opacity:1" fill="#f6fefe" d="M 241.5,156.5 C 241.217,157.289 240.717,157.956 240,158.5C 238.647,157.315 237.48,155.981 236.5,154.5C 235.833,155.833 235.167,157.167 234.5,158.5C 232.527,157.36 230.693,156.027 229,154.5C 227.817,155.731 226.651,155.731 225.5,154.5C 226.167,153.833 226.833,153.167 227.5,152.5C 225.712,151.717 224.712,150.384 224.5,148.5C 225.043,148.44 225.376,148.107 225.5,147.5C 224.833,146.5 224.167,145.5 223.5,144.5C 224.747,142.958 224.747,141.458 223.5,140C 224.759,139.077 226.092,138.243 227.5,137.5C 224.947,136.904 223.28,135.404 222.5,133C 221.571,129.192 221.571,125.359 222.5,121.5C 224.167,121.5 225.833,121.5 227.5,121.5C 228.763,126.032 230.597,130.365 233,134.5C 233,132.5 233,130.5 233,128.5C 234.944,132.11 237.277,135.443 240,138.5C 240.167,138.167 240.333,137.833 240.5,137.5C 237.816,133.566 237.149,129.399 238.5,125C 237.271,123.471 235.771,122.304 234,121.5C 233.333,118.167 233.333,114.833 234,111.5C 236.251,108.983 237.084,105.983 236.5,102.5C 238.59,102.45 239.923,103.45 240.5,105.5C 239.624,106.251 238.624,106.751 237.5,107C 239.792,108.29 241.792,109.957 243.5,112C 242.93,115.054 242.763,118.221 243,121.5C 238.582,122.599 238.415,124.099 242.5,126C 242.043,126.414 241.709,126.914 241.5,127.5C 243.65,129.149 245.65,130.982 247.5,133C 246.397,134.68 246.73,136.18 248.5,137.5C 247.872,139.258 246.872,140.758 245.5,142C 246.833,142.667 248.167,143.333 249.5,144C 244.954,144.81 244.62,146.143 248.5,148C 244.5,148.333 240.5,148.667 236.5,149C 238.415,151.4 240.081,153.9 241.5,156.5 Z"/></g>
<g><path style="opacity:1" fill="#e4fcfe" d="M 249.5,130.5 C 256.305,132.711 263.305,133.878 270.5,134C 265.348,138.408 260.015,142.575 254.5,146.5C 253.914,146.291 253.414,145.957 253,145.5C 252.782,142.574 252.282,139.74 251.5,137C 254.538,133.804 254.038,132.97 250,134.5C 248.489,133.436 248.323,132.103 249.5,130.5 Z"/></g>
<g><path style="opacity:1" fill="#96f2fd" d="M 261.5,156.5 C 257.971,156.557 254.971,157.557 252.5,159.5C 251.778,159.082 251.278,158.416 251,157.5C 250.333,160.167 249.667,160.167 249,157.5C 248.342,155.892 248.842,154.725 250.5,154C 252.649,153.421 254.815,152.921 257,152.5C 258.326,152.755 259.326,153.422 260,154.5C 260.333,154.167 260.667,153.833 261,153.5C 261.483,154.448 261.649,155.448 261.5,156.5 Z"/></g>
<g><path style="opacity:1" fill="#dafbfe" d="M 224.5,148.5 C 224.712,150.384 225.712,151.717 227.5,152.5C 226.833,153.167 226.167,153.833 225.5,154.5C 226.651,155.731 227.817,155.731 229,154.5C 230.693,156.027 232.527,157.36 234.5,158.5C 235.167,157.167 235.833,155.833 236.5,154.5C 237.48,155.981 238.647,157.315 240,158.5C 240.717,157.956 241.217,157.289 241.5,156.5C 244.21,158.253 244.877,160.586 243.5,163.5C 243.818,164.647 244.484,165.481 245.5,166C 244.833,166.333 244.167,166.667 243.5,167C 244.416,167.278 245.082,167.778 245.5,168.5C 243.857,168.52 242.524,167.853 241.5,166.5C 239.534,168.023 237.534,169.356 235.5,170.5C 233.088,169.021 231.088,169.521 229.5,172C 231.082,174.085 233.082,175.585 235.5,176.5C 234.289,178.422 232.956,180.255 231.5,182C 232.549,182.492 233.549,182.326 234.5,181.5C 236.286,183.021 238.119,183.354 240,182.5C 240.483,183.448 240.649,184.448 240.5,185.5C 238.585,185.216 236.919,185.549 235.5,186.5C 233.236,185.781 230.903,185.448 228.5,185.5C 229.15,181.393 228.15,177.893 225.5,175C 227.207,174.805 228.874,174.805 230.5,175C 228.074,173.855 225.741,172.522 223.5,171C 224.833,169.667 226.167,168.333 227.5,167C 226.207,166.51 224.873,166.343 223.5,166.5C 223.082,165.778 222.416,165.278 221.5,165C 222.505,163.493 223.838,162.327 225.5,161.5C 224.065,160.071 223.065,158.405 222.5,156.5C 222.964,153.651 223.631,150.984 224.5,148.5 Z"/></g>
<g><path style="opacity:1" fill="#87f0fc" d="M 235.5,170.5 C 234.602,171.158 233.602,171.824 232.5,172.5C 235.997,173.723 239.497,173.723 243,172.5C 244.274,173.535 245.44,174.702 246.5,176C 244.744,176.202 243.078,176.702 241.5,177.5C 242.517,181.753 241.85,185.753 239.5,189.5C 238.893,189.376 238.56,189.043 238.5,188.5C 237.5,187.833 236.5,187.167 235.5,186.5C 236.919,185.549 238.585,185.216 240.5,185.5C 240.649,184.448 240.483,183.448 240,182.5C 238.119,183.354 236.286,183.021 234.5,181.5C 233.549,182.326 232.549,182.492 231.5,182C 232.956,180.255 234.289,178.422 235.5,176.5C 233.082,175.585 231.082,174.085 229.5,172C 231.088,169.521 233.088,169.021 235.5,170.5 Z"/></g>
<g><path style="opacity:1" fill="#e8fcfe" d="M 261.5,156.5 C 261.351,157.552 261.517,158.552 262,159.5C 263.699,158.594 265.533,158.261 267.5,158.5C 267.627,160.915 267.793,163.249 268,165.5C 267.085,166.328 266.419,167.328 266,168.5C 263.833,167 262.333,167.5 261.5,170C 261.777,171.892 262.777,173.225 264.5,174C 262.114,175.887 260.947,178.387 261,181.5C 257.515,183.82 254.349,186.487 251.5,189.5C 253.284,190.606 255.118,190.606 257,189.5C 259.277,190.64 259.61,191.973 258,193.5C 257.586,193.043 257.086,192.709 256.5,192.5C 255.692,194.423 255.192,196.423 255,198.5C 253.874,199.944 252.374,200.61 250.5,200.5C 246.136,200.03 241.802,199.364 237.5,198.5C 236.007,197.859 235.007,196.859 234.5,195.5C 237.338,193.694 237.005,192.694 233.5,192.5C 233.343,191.127 233.51,189.793 234,188.5C 234.333,189.167 234.667,189.833 235,190.5C 235.71,189.027 236.876,188.36 238.5,188.5C 238.56,189.043 238.893,189.376 239.5,189.5C 241.85,185.753 242.517,181.753 241.5,177.5C 243.078,176.702 244.744,176.202 246.5,176C 245.44,174.702 244.274,173.535 243,172.5C 239.497,173.723 235.997,173.723 232.5,172.5C 233.602,171.824 234.602,171.158 235.5,170.5C 237.534,169.356 239.534,168.023 241.5,166.5C 242.524,167.853 243.857,168.52 245.5,168.5C 246.472,169.751 247.139,169.418 247.5,167.5C 248.156,165.547 248.489,163.547 248.5,161.5C 250.483,161.843 251.817,161.176 252.5,159.5C 254.971,157.557 257.971,156.557 261.5,156.5 Z"/></g>
<g><path style="opacity:1" fill="#abf4fd" d="M 223.5,166.5 C 224.873,166.343 226.207,166.51 227.5,167C 226.167,168.333 224.833,169.667 223.5,171C 225.741,172.522 228.074,173.855 230.5,175C 228.874,174.805 227.207,174.805 225.5,175C 228.15,177.893 229.15,181.393 228.5,185.5C 230.903,185.448 233.236,185.781 235.5,186.5C 236.5,187.167 237.5,187.833 238.5,188.5C 236.876,188.36 235.71,189.027 235,190.5C 234.667,189.833 234.333,189.167 234,188.5C 233.51,189.793 233.343,191.127 233.5,192.5C 237.005,192.694 237.338,193.694 234.5,195.5C 232.477,194.479 230.477,194.812 228.5,196.5C 227.645,193.703 225.979,193.036 223.5,194.5C 222.548,192.955 222.215,191.288 222.5,189.5C 219.679,189.461 217.012,188.795 214.5,187.5C 215.932,185.703 215.599,184.37 213.5,183.5C 215.182,179.596 218.182,177.929 222.5,178.5C 222.603,175.781 222.269,173.115 221.5,170.5C 222.225,169.133 222.892,167.8 223.5,166.5 Z"/></g>
<g><path style="opacity:1" fill="#a2f3fd" d="M 234.5,212.5 C 233.826,210.976 232.826,209.642 231.5,208.5C 230.042,207.218 228.708,207.218 227.5,208.5C 225.767,207.992 225.434,207.159 226.5,206C 225.833,205 225.167,204 224.5,203C 225.687,201.981 226.687,200.814 227.5,199.5C 229.074,198.369 230.741,198.202 232.5,199C 231.062,199.219 229.729,199.719 228.5,200.5C 230.942,203.729 233.608,206.729 236.5,209.5C 236.058,210.739 235.391,211.739 234.5,212.5 Z"/></g>
<g><path style="opacity:1" fill="#aaf4fd" d="M 243.5,205.5 C 246.428,207.124 247.095,209.457 245.5,212.5C 244.365,210.293 243.699,207.96 243.5,205.5 Z"/></g>
<g><path style="opacity:1" fill="#cff9fe" d="M 234.5,212.5 C 234.5,214.5 234.5,216.5 234.5,218.5C 236.109,218.094 237.443,218.094 238.5,218.5C 235.967,223.242 232.634,224.242 228.5,221.5C 227.949,218.91 226.616,218.244 224.5,219.5C 223.682,216.893 223.182,214.226 223,211.5C 221.059,215.554 220.225,215.22 220.5,210.5C 222.697,208.024 224.863,208.024 227,210.5C 227.464,209.906 227.631,209.239 227.5,208.5C 228.708,207.218 230.042,207.218 231.5,208.5C 232.826,209.642 233.826,210.976 234.5,212.5 Z"/></g>
<g><path style="opacity:1" fill="#eafcfe" d="M 213.5,183.5 C 215.599,184.37 215.932,185.703 214.5,187.5C 217.012,188.795 219.679,189.461 222.5,189.5C 222.215,191.288 222.548,192.955 223.5,194.5C 225.979,193.036 227.645,193.703 228.5,196.5C 223.33,199.504 219.33,203.671 216.5,209C 217.191,210.067 217.691,211.234 218,212.5C 218.708,211.619 219.542,210.953 220.5,210.5C 220.225,215.22 221.059,215.554 223,211.5C 223.182,214.226 223.682,216.893 224.5,219.5C 226.616,218.244 227.949,218.91 228.5,221.5C 227.28,223.05 227.28,224.716 228.5,226.5C 226.833,226.5 225.167,226.5 223.5,226.5C 223.421,225.07 223.754,223.736 224.5,222.5C 222.979,222.12 221.313,221.954 219.5,222C 218.185,220.605 218.519,219.605 220.5,219C 218.939,218.682 217.772,217.849 217,216.5C 215.189,220.253 214.022,224.253 213.5,228.5C 211.046,226.897 209.046,224.897 207.5,222.5C 204.98,216.453 201.98,210.619 198.5,205C 200.473,201.506 203.473,200.006 207.5,200.5C 207.423,199.25 206.756,198.417 205.5,198C 206.191,196.933 206.691,195.766 207,194.5C 207.689,195.357 208.522,196.023 209.5,196.5C 210.606,194.716 210.606,192.882 209.5,191C 210.978,188.541 212.312,186.041 213.5,183.5 Z"/></g>
<g><path style="opacity:1" fill="#58e9fc" d="M 207.5,200.5 C 208.978,200.238 210.311,200.571 211.5,201.5C 210.833,201.833 210.167,202.167 209.5,202.5C 208.287,202.253 207.62,201.586 207.5,200.5 Z"/></g>
<g><path style="opacity:1" fill="#55e7fb" d="M 208.5,217.5 C 214.76,219.686 214.76,221.02 208.5,221.5C 208.5,220.167 208.5,218.833 208.5,217.5 Z"/></g>
<g><path style="opacity:1" fill="#f8fefe" d="M 201.5,229.5 C 201.141,231.371 200.141,232.871 198.5,234C 196.347,234.099 194.681,234.933 193.5,236.5C 193.167,236.5 192.833,236.5 192.5,236.5C 192.915,234.253 193.582,232.086 194.5,230C 194.166,227.825 193.166,225.992 191.5,224.5C 193.288,223.717 194.288,222.384 194.5,220.5C 194.783,219.711 195.283,219.044 196,218.5C 197.137,219.364 198.47,220.364 200,221.5C 200.395,224.207 200.895,226.873 201.5,229.5 Z"/></g>
<g><path style="opacity:1" fill="#acf5fd" d="M 228.5,226.5 C 228.007,228.806 227.674,231.139 227.5,233.5C 224.362,233.916 221.362,234.083 218.5,234C 221.21,237.573 220.71,240.74 217,243.5C 216.667,242.167 216.333,240.833 216,239.5C 214.887,240.711 213.72,240.711 212.5,239.5C 211.056,241.608 210.39,243.941 210.5,246.5C 206.835,247.652 203.169,247.819 199.5,247C 202.021,252.771 201.521,252.937 198,247.5C 195.529,249.858 194.029,249.192 193.5,245.5C 194.93,245.421 196.264,245.754 197.5,246.5C 197.736,245.753 198.07,244.92 198.5,244C 199.784,243.316 200.951,243.483 202,244.5C 202.87,243.892 203.37,243.059 203.5,242C 202.767,240.234 202.433,238.401 202.5,236.5C 200.738,236.643 199.071,236.309 197.5,235.5C 196.378,236.63 195.044,237.297 193.5,237.5C 193.5,237.167 193.5,236.833 193.5,236.5C 194.681,234.933 196.347,234.099 198.5,234C 200.141,232.871 201.141,231.371 201.5,229.5C 203.821,227.91 204.821,225.577 204.5,222.5C 205.5,222.5 206.5,222.5 207.5,222.5C 209.046,224.897 211.046,226.897 213.5,228.5C 214.022,224.253 215.189,220.253 217,216.5C 217.772,217.849 218.939,218.682 220.5,219C 218.519,219.605 218.185,220.605 219.5,222C 221.313,221.954 222.979,222.12 224.5,222.5C 223.754,223.736 223.421,225.07 223.5,226.5C 225.167,226.5 226.833,226.5 228.5,226.5 Z"/></g>
<g><path style="opacity:1" fill="#cef9fe" d="M 85.5,226.5 C 85.1667,228.5 84.8333,230.5 84.5,232.5C 83.7515,233.531 83.0848,234.698 82.5,236C 79.8236,236.617 79.157,235.784 80.5,233.5C 79.1667,232.833 77.8333,232.167 76.5,231.5C 76.7093,230.914 77.0426,230.414 77.5,230C 73.6176,228.248 72.6176,225.415 74.5,221.5C 76.575,223.368 78.7417,223.035 81,220.5C 82.4908,222.664 83.9908,224.664 85.5,226.5 Z"/></g>
<g><path style="opacity:1" fill="#f7fefe" d="M 84.5,232.5 C 84.8333,230.5 85.1667,228.5 85.5,226.5C 85.7352,225.903 86.2352,225.57 87,225.5C 91.111,225.542 93.9444,227.375 95.5,231C 92.3081,233.692 88.9748,236.192 85.5,238.5C 84.5344,236.604 84.2011,234.604 84.5,232.5 Z"/></g>
<g><path style="opacity:1" fill="#cdf9fd" d="M 194.5,220.5 C 194.288,222.384 193.288,223.717 191.5,224.5C 193.166,225.992 194.166,227.825 194.5,230C 193.582,232.086 192.915,234.253 192.5,236.5C 187.822,235.491 183.156,234.491 178.5,233.5C 178.893,231.716 179.559,230.05 180.5,228.5C 181.376,226.078 182.876,225.412 185,226.5C 188.316,224.673 191.483,222.673 194.5,220.5 Z"/></g>
<g><path style="opacity:1" fill="#94f2fd" d="M 180.5,228.5 C 179.559,230.05 178.893,231.716 178.5,233.5C 174.947,233.651 171.28,233.817 167.5,234C 168.949,232.883 170.616,232.216 172.5,232C 173.22,229.878 174.387,229.378 176,230.5C 177.192,228.35 178.692,227.683 180.5,228.5 Z"/></g>
<g><path style="opacity:1" fill="#a5f4fd" d="M 106.5,236.5 C 106.999,242.19 105.332,242.69 101.5,238C 101.833,237.667 102.167,237.333 102.5,237C 100.922,235.906 99.2554,235.072 97.5,234.5C 97.7828,233.711 98.2828,233.044 99,232.5C 101.627,233.768 104.127,235.101 106.5,236.5 Z"/></g>
<g><path style="opacity:1" fill="#e3fbfe" d="M 193.5,245.5 C 193.227,243.549 193.893,242.049 195.5,241C 194.5,240.167 193.5,239.333 192.5,238.5C 192.624,237.893 192.957,237.56 193.5,237.5C 195.044,237.297 196.378,236.63 197.5,235.5C 199.071,236.309 200.738,236.643 202.5,236.5C 202.433,238.401 202.767,240.234 203.5,242C 203.37,243.059 202.87,243.892 202,244.5C 200.951,243.483 199.784,243.316 198.5,244C 198.07,244.92 197.736,245.753 197.5,246.5C 196.264,245.754 194.93,245.421 193.5,245.5 Z"/></g>
<g><path style="opacity:1" fill="#f9fefe" d="M 177.5,254.5 C 175.674,251.937 173.674,249.437 171.5,247C 173.382,246.802 175.048,246.302 176.5,245.5C 178.179,245.108 179.846,244.608 181.5,244C 180.692,243.692 180.025,243.192 179.5,242.5C 181.167,241.167 182.833,239.833 184.5,238.5C 184.833,238.833 185.167,239.167 185.5,239.5C 184.833,240.167 184.167,240.833 183.5,241.5C 184.948,242.354 186.281,243.354 187.5,244.5C 188.086,244.291 188.586,243.957 189,243.5C 189.124,251.546 185.291,255.213 177.5,254.5 Z"/></g>
<g><path style="opacity:1" fill="#edfdfe" d="M 97.5,234.5 C 99.2554,235.072 100.922,235.906 102.5,237C 102.167,237.333 101.833,237.667 101.5,238C 105.332,242.69 106.999,242.19 106.5,236.5C 107.5,236.5 108.5,236.5 109.5,236.5C 109.443,240.133 110.443,240.3 112.5,237C 113.833,236.333 115.167,236.333 116.5,237C 112.625,240.381 108.625,243.547 104.5,246.5C 103.708,244.743 102.375,243.409 100.5,242.5C 101.954,240.737 101.62,239.403 99.5,238.5C 99.1203,240.021 98.9536,241.687 99,243.5C 97.6667,244.833 96.3333,246.167 95,247.5C 94.5357,246.906 94.369,246.239 94.5,245.5C 92.1279,243.588 92.7946,242.422 96.5,242C 95.062,241.781 93.7287,241.281 92.5,240.5C 94.6517,238.838 96.3183,236.838 97.5,234.5 Z"/></g>
<g><path style="opacity:1" fill="#aef5fe" d="M 104.5,246.5 C 102.653,249.017 100.153,250.683 97,251.5C 94.4773,250.808 92.9773,249.142 92.5,246.5C 92.9569,245.702 93.6236,245.369 94.5,245.5C 94.369,246.239 94.5357,246.906 95,247.5C 96.3333,246.167 97.6667,244.833 99,243.5C 98.9536,241.687 99.1203,240.021 99.5,238.5C 101.62,239.403 101.954,240.737 100.5,242.5C 102.375,243.409 103.708,244.743 104.5,246.5 Z"/></g>
<g><path style="opacity:1" fill="#d7fafe" d="M 124.5,244.5 C 127.156,246.656 129.656,248.989 132,251.5C 132.749,252.635 132.583,253.635 131.5,254.5C 129.833,253.833 128.167,253.167 126.5,252.5C 124.471,254.858 122.471,257.192 120.5,259.5C 119.707,258.645 120.04,257.811 121.5,257C 119.831,255.331 117.831,254.498 115.5,254.5C 115.605,259.154 114.271,259.654 111.5,256C 112.304,254.229 113.471,252.729 115,251.5C 117.803,253.67 120.803,254.337 124,253.5C 124.667,252.5 124.667,251.5 124,250.5C 117.956,247.509 118.122,245.509 124.5,244.5 Z"/></g>
<g><path style="opacity:1" fill="#caf8fe" d="M 176.5,245.5 C 175.048,246.302 173.382,246.802 171.5,247C 173.674,249.437 175.674,251.937 177.5,254.5C 174.906,256.729 175.24,258.895 178.5,261C 176.899,261.273 175.399,261.773 174,262.5C 173.654,260.782 173.154,259.115 172.5,257.5C 168.88,256.707 165.213,256.707 161.5,257.5C 159.141,256.663 157.141,255.163 155.5,253C 156.448,252.517 157.448,252.351 158.5,252.5C 158.5,250.833 158.5,249.167 158.5,247.5C 160.167,247.5 161.833,247.5 163.5,247.5C 163.631,250.329 162.631,251.662 160.5,251.5C 162.897,257.949 165.564,257.949 168.5,251.5C 167.652,249.591 167.318,247.591 167.5,245.5C 162.633,245.118 157.966,245.785 153.5,247.5C 153.372,245.345 153.872,243.345 155,241.5C 154.245,246.437 155.578,246.771 159,242.5C 160.87,243.743 163.036,244.41 165.5,244.5C 167.5,244.333 169.5,244.167 171.5,244C 175.612,239.18 176.612,239.347 174.5,244.5C 174.957,245.298 175.624,245.631 176.5,245.5 Z"/></g>
<g><path style="opacity:1" fill="#f0fdfe" d="M 153.5,247.5 C 157.966,245.785 162.633,245.118 167.5,245.5C 167.318,247.591 167.652,249.591 168.5,251.5C 165.564,257.949 162.897,257.949 160.5,251.5C 162.631,251.662 163.631,250.329 163.5,247.5C 161.833,247.5 160.167,247.5 158.5,247.5C 158.5,249.167 158.5,250.833 158.5,252.5C 157.448,252.351 156.448,252.517 155.5,253C 157.141,255.163 159.141,256.663 161.5,257.5C 162.231,259.599 162.231,261.599 161.5,263.5C 160.534,261.604 160.201,259.604 160.5,257.5C 158.833,257.5 157.167,257.5 155.5,257.5C 152.482,257.335 149.482,257.502 146.5,258C 145.944,258.383 145.611,258.883 145.5,259.5C 144.566,260.568 144.232,261.901 144.5,263.5C 143.504,263.586 142.671,263.252 142,262.5C 141.546,260.464 140.713,258.63 139.5,257C 140.414,255.594 141.08,254.094 141.5,252.5C 141.783,251.711 142.283,251.044 143,250.5C 144,251.833 145,251.833 146,250.5C 146.619,247.968 147.619,245.635 149,243.5C 150.371,245.041 151.871,246.375 153.5,247.5 Z"/></g>
<g><path style="opacity:1" fill="#dcfafe" d="M 103.5,255.5 C 105.376,254.742 107.043,254.742 108.5,255.5C 106.631,257.984 104.964,257.984 103.5,255.5 Z"/></g>
<g><path style="opacity:1" fill="#f8fefe" d="M 184.5,256.5 C 187.167,256.5 189.833,256.5 192.5,256.5C 192.5,257.5 192.5,258.5 192.5,259.5C 191.5,259.5 190.5,259.5 189.5,259.5C 189.5,260.5 189.5,261.5 189.5,262.5C 186.017,263.084 183.017,262.251 180.5,260C 181.731,258.595 183.064,257.429 184.5,256.5 Z"/></g>
<g><path style="opacity:1" fill="#c0f7fd" d="M 155.5,257.5 C 156.048,259.394 157.048,261.06 158.5,262.5C 157.965,264.661 157.132,266.661 156,268.5C 155.781,267.062 155.281,265.729 154.5,264.5C 153.803,266.385 152.803,266.718 151.5,265.5C 150.904,266.716 150.737,268.049 151,269.5C 150,270.167 149,270.833 148,271.5C 145.455,268.107 145.289,264.773 147.5,261.5C 147.145,260.478 146.478,259.811 145.5,259.5C 145.611,258.883 145.944,258.383 146.5,258C 149.482,257.502 152.482,257.335 155.5,257.5 Z"/></g>
<g><path style="opacity:1" fill="#b2f5fd" d="M 141.5,252.5 C 141.08,254.094 140.414,255.594 139.5,257C 140.713,258.63 141.546,260.464 142,262.5C 142.671,263.252 143.504,263.586 144.5,263.5C 144.435,265.696 143.768,267.696 142.5,269.5C 141.063,266.956 139.563,266.956 138,269.5C 134.616,267.006 133.449,263.839 134.5,260C 132.842,259.275 132.342,258.108 133,256.5C 135.209,255.08 137.209,253.413 139,251.5C 139.671,252.252 140.504,252.586 141.5,252.5 Z"/></g>
</svg>
