<?xml version="1.0" standalone="no"?>
<!DOCTYPE svg PUBLIC "-//W3C//DTD SVG 20010904//EN"
 "http://www.w3.org/TR/2001/REC-SVG-20010904/DTD/svg10.dtd">
<svg version="1.0" xmlns="http://www.w3.org/2000/svg"
 width="2048.000000pt" height="2048.000000pt" viewBox="0 0 2048.000000 2048.000000"
 preserveAspectRatio="xMidYMid meet">

<g transform="translate(0.000000,2048.000000) scale(0.100000,-0.100000)"
fill="#000000" stroke="none">
<path d="M12540 16334 c-908 -112 -1620 -851 -1777 -1844 -25 -164 -25 -568 0
-730 89 -561 360 -1058 762 -1400 66 -56 240 -179 320 -225 15 -9 8 -24 -65
-135 -46 -69 -109 -159 -140 -200 -84 -111 -304 -428 -362 -523 -28 -45 -81
-120 -118 -167 -193 -245 -320 -554 -320 -781 l0 -72 -31 39 c-97 123 -381
401 -608 598 -26 22 -101 90 -167 150 -157 144 -257 217 -379 275 -134 64
-193 82 -440 135 -332 71 -365 76 -462 83 -162 11 -545 -32 -644 -72 -13 -5
-27 13 -64 78 -26 47 -71 111 -99 144 -28 32 -90 111 -137 174 -199 263 -562
579 -1175 1020 -34 24 -106 80 -160 125 -231 189 -371 283 -553 371 -258 125
-597 237 -764 253 -81 8 -105 7 -135 -6 -78 -32 -112 -87 -112 -179 0 -101 50
-169 133 -179 23 -3 113 -14 199 -25 l157 -20 318 -159 c316 -157 383 -195
603 -345 63 -43 174 -118 245 -167 300 -204 626 -470 851 -695 170 -169 189
-193 329 -425 48 -80 108 -174 133 -210 105 -150 130 -189 172 -260 108 -184
257 -522 286 -647 8 -37 24 -79 34 -94 22 -29 76 -59 110 -59 38 0 89 31 111
67 19 30 21 44 16 104 -10 116 -198 563 -326 773 -22 38 -41 72 -41 76 0 32
324 54 435 31 99 -21 519 -133 600 -160 123 -41 360 -163 518 -268 105 -69
164 -119 301 -252 94 -92 215 -206 268 -254 106 -97 173 -179 244 -302 267
-464 315 -578 364 -860 29 -164 93 -364 134 -418 76 -100 203 -117 248 -34 34
63 21 262 -27 402 -34 97 -62 223 -80 350 -39 277 -55 428 -55 520 0 364 146
713 613 1462 85 137 256 467 297 573 7 19 14 36 15 38 1 1 59 -13 129 -33 194
-53 327 -68 541 -62 191 5 318 24 470 72 43 13 80 23 81 22 7 -11 -18 -600
-30 -692 -24 -190 -46 -441 -46 -536 0 -90 -15 -251 -50 -519 -23 -182 -40
-391 -40 -510 -1 -97 -11 -156 -74 -435 -69 -303 -134 -495 -214 -632 -56 -96
-118 -216 -154 -298 -55 -125 -470 -957 -531 -1065 -33 -58 -97 -163 -142
-235 -45 -71 -110 -177 -145 -235 -171 -285 -519 -737 -666 -866 l-66 -58 -76
2 c-97 4 -263 27 -345 48 -81 21 -457 147 -572 192 -49 19 -164 72 -255 117
-91 45 -221 108 -290 141 -149 69 -308 160 -485 276 -71 46 -179 113 -240 148
-383 221 -819 561 -1159 904 -120 121 -244 253 -275 291 -31 39 -86 106 -122
150 -37 44 -74 96 -84 115 -10 19 -49 80 -88 135 -69 98 -120 187 -211 370
-48 97 -82 233 -93 379 -9 114 -41 141 -113 93 -52 -35 -201 -94 -270 -108
-149 -29 -525 49 -855 179 -455 178 -735 363 -898 593 -167 236 -383 718 -436
975 -22 108 -51 390 -51 500 0 66 23 216 55 369 22 106 20 148 -11 184 -55 65
-178 68 -299 6 -122 -61 -126 -74 -160 -445 -33 -358 -11 -500 124 -829 73
-177 116 -262 258 -516 201 -358 317 -540 439 -685 122 -146 320 -313 486
-412 99 -58 370 -177 529 -231 216 -73 302 -87 601 -96 142 -5 260 -10 262
-12 3 -2 23 -40 47 -84 111 -212 201 -327 469 -600 113 -116 266 -280 341
-365 145 -165 420 -437 533 -528 37 -30 102 -86 145 -124 140 -127 499 -395
726 -543 322 -210 498 -319 630 -389 50 -27 117 -63 150 -81 298 -161 462
-237 646 -300 258 -89 348 -111 579 -141 468 -60 426 -62 506 25 65 70 154
179 274 336 14 18 70 86 126 151 128 152 296 381 395 543 43 69 100 160 126
201 144 227 250 420 450 820 121 245 251 509 287 587 36 78 93 188 125 245 61
109 88 165 126 264 42 110 104 327 134 469 17 77 40 176 51 220 14 57 24 155
35 335 8 140 25 343 39 450 34 266 44 383 56 605 5 105 21 289 35 410 18 150
29 317 35 525 5 168 12 316 15 330 4 16 24 35 58 55 156 92 378 285 512 446
198 236 357 543 441 849 226 822 14 1698 -550 2279 -296 304 -641 491 -1047
567 -81 15 -421 27 -499 18z m495 -1148 c309 -81 594 -316 744 -614 46 -90 97
-251 117 -362 24 -139 15 -379 -19 -515 -122 -478 -492 -832 -949 -905 -108
-18 -340 -8 -443 18 -387 98 -700 398 -829 794 -48 147 -61 232 -60 403 0 165
14 258 64 407 136 408 482 716 893 794 48 9 125 12 227 10 128 -3 172 -8 255
-30z"/>
<path d="M12639 14486 c-77 -27 -166 -115 -205 -201 -71 -155 -69 -337 6 -485
115 -228 357 -273 516 -97 205 226 145 654 -108 772 -60 28 -149 33 -209 11z"/>
</g>
</svg>
